<svg width="15" height="15" viewBox="0 0 15 15" fill="none" xmlns="http://www.w3.org/2000/svg">
<path d="M1.70013 6.54291C1.14785 6.54291 0.700134 6.99062 0.700134 7.54291C0.700134 8.09519 1.14785 8.54291 1.70013 8.54291V6.54291ZM14.4072 8.25001C14.7978 7.85949 14.7978 7.22633 14.4072 6.8358L8.04328 0.47184C7.65276 0.0813156 7.01959 0.0813156 6.62907 0.47184C6.23854 0.862364 6.23854 1.49553 6.62907 1.88605L12.2859 7.54291L6.62907 13.1998C6.23854 13.5903 6.23854 14.2235 6.62907 14.614C7.01959 15.0045 7.65276 15.0045 8.04328 14.614L14.4072 8.25001ZM1.70013 8.54291H13.7001V6.54291L1.70013 6.54291V8.54291Z" fill="#FFA600"/>
</svg>
